<?xml version="1.0" encoding="UTF-8"?>
<!-- Generator: visioncortex VTracer 0.6.3 -->
<svg version="1.1" xmlns="http://www.w3.org/2000/svg" width="1202" height="1280">
<path d="M0 0 C1.15 -0 1.15 -0 2.33 -0 C16.18 0.02 29.7 0.91 43.38 3.25 C44.3 3.41 45.23 3.56 46.18 3.72 C72.63 8.37 97.67 17.8 121.38 30.25 C122.19 30.68 123.01 31.1 123.85 31.54 C131.91 35.8 139.35 40.41 146.38 46.25 C147.89 47.4 149.41 48.55 150.94 49.69 C151.6 50.18 152.26 50.67 152.94 51.18 C153.41 51.54 153.89 51.89 154.38 52.25 C150.97 52.25 150.07 51.65 147.28 49.84 C146.48 49.33 145.69 48.81 144.87 48.29 C143.6 47.46 143.6 47.46 142.31 46.62 C140.57 45.51 138.83 44.4 137.09 43.29 C134.64 41.71 132.19 40.13 129.75 38.55 C82.11 7.94 15.77 0.4 -38.66 11.98 C-72.16 19.28 -104.64 32.16 -132.62 52.25 C-133.59 52.94 -134.56 53.64 -135.56 54.36 C-143.21 59.98 -150.46 66.02 -157.62 72.25 C-158.55 73.05 -159.47 73.85 -160.42 74.67 C-165.6 79.23 -170.21 83.96 -174.62 89.25 C-175.43 90.17 -176.24 91.09 -177.08 92.04 C-212.8 132.89 -237.52 188.83 -237.83 243.61 C-237.84 244.46 -237.84 245.32 -237.85 246.2 C-238.09 272.87 -238.09 272.87 -234.62 299.25 C-234.42 300.25 -234.22 301.24 -234.01 302.27 C-225.1 344.39 -207.16 385.04 -177.74 416.95 C-175.82 419.03 -173.97 421.16 -172.12 423.31 C-164.97 431.49 -157.12 438.49 -148.62 445.25 C-147.87 445.88 -147.11 446.52 -146.34 447.17 C-133.6 457.76 -119.29 466.6 -104.62 474.25 C-103.86 474.65 -103.1 475.05 -102.32 475.46 C-81.09 486.46 -58.16 494.05 -34.62 498.25 C-33.72 498.41 -32.81 498.57 -31.88 498.74 C13.93 506.48 62.48 500.91 105.38 483.25 C107.35 482.46 109.33 481.67 111.31 480.88 C112.02 480.58 112.73 480.28 113.46 479.98 C115.37 479.25 115.37 479.25 117.54 478.74 C119.48 478.39 119.48 478.39 120.75 476.81 C122.38 475.25 122.38 475.25 125.15 474.36 C128.4 473.24 130.81 471.88 133.67 469.99 C134.63 469.37 135.59 468.74 136.58 468.1 C138.58 466.77 140.58 465.45 142.58 464.13 C143.54 463.51 144.5 462.88 145.48 462.24 C146.35 461.67 147.22 461.09 148.11 460.5 C150.38 459.25 150.38 459.25 153.38 459.25 C135.75 474.11 113.02 485.62 91.38 493.25 C90.61 493.53 89.85 493.8 89.06 494.09 C23.93 517.51 -47.48 513.28 -110.19 484.5 C-169.25 456.47 -216.86 404.17 -239.01 342.75 C-251.33 307.47 -257.12 270.71 -253.44 233.38 C-253.34 232.38 -253.34 232.38 -253.24 231.37 C-251.34 212.27 -247.73 193.47 -241.62 175.25 C-241.22 174.02 -240.82 172.8 -240.4 171.54 C-227.93 135.5 -206.98 103.51 -180.62 76.25 C-180.09 75.7 -179.56 75.14 -179.01 74.57 C-172.29 67.6 -165.31 61.16 -157.62 55.25 C-157.1 54.84 -156.57 54.43 -156.02 54.01 C-140.67 42.15 -124.27 31.91 -106.5 24.11 C-104.56 23.22 -102.67 22.26 -100.78 21.28 C-70.12 5.82 -33.99 0.03 0 0 Z " fill="#101312" transform="translate(416.625,397.75)"/>
<path d="M0 0 C1.24 1.22 2.45 2.47 3.62 3.75 C4.24 4.41 4.85 5.06 5.49 5.74 C16.37 18.47 18.02 34.95 17.94 51.06 C17.93 52.24 17.93 53.43 17.92 54.64 C17.71 71.08 14.97 86.43 2.93 98.44 C-6.61 106.97 -16.11 109.14 -28.75 109.06 C-29.67 109.06 -30.6 109.05 -31.55 109.05 C-44.99 108.81 -55.08 104.78 -65.12 95.75 C-77.65 82.52 -79.19 62.6 -78.71 45.26 C-77.95 29.7 -73.69 13.37 -62.19 2.19 C-45.09 -11.32 -17.61 -14.5 0 0 Z " fill="#FBFDFD" transform="translate(468.375,611.25)"/>
<path d="M0 0 C1.02 -0.02 2.03 -0.05 3.08 -0.07 C4.54 -0.08 4.54 -0.08 6.03 -0.09 C6.92 -0.09 7.81 -0.1 8.73 -0.11 C11.06 0.38 11.06 0.38 12.7 1.97 C14.4 4.98 15.64 8.08 16.82 11.31 C17.21 12.36 17.21 12.36 17.61 13.42 C18.18 14.94 18.74 16.45 19.3 17.97 C20.84 22.14 22.4 26.31 23.96 30.47 C24.29 31.35 24.62 32.23 24.96 33.14 C28.81 43.41 32.78 53.64 36.75 63.88 C44.81 84.65 44.81 84.65 48.52 94.54 C48.78 95.23 49.04 95.92 49.3 96.64 C50.49 99.8 51.67 102.96 52.84 106.13 C53.44 107.74 53.44 107.74 54.06 109.38 C54.4 110.31 54.74 111.23 55.1 112.18 C55.97 114.52 55.97 114.52 58.06 116.38 C61.8 108.41 65.11 100.34 68.25 92.12 C68.76 90.81 69.26 89.49 69.77 88.18 C73.03 79.71 76.26 71.24 79.5 62.77 C93.88 25.13 93.88 25.13 99.06 12.06 C99.45 11.07 99.84 10.07 100.25 9.05 C100.6 8.17 100.95 7.29 101.31 6.39 C101.61 5.65 101.9 4.91 102.2 4.15 C103.06 2.38 103.06 2.38 105.06 0.38 C107.29 0.13 107.29 0.13 110.04 0.14 C111.02 0.15 112 0.15 113.01 0.15 C114.04 0.16 115.07 0.17 116.12 0.19 C117.16 0.19 118.19 0.19 119.25 0.19 C126.92 0.23 126.92 0.23 128.06 1.38 C128.16 3.21 128.18 5.05 128.18 6.89 C128.18 8.68 128.18 8.68 128.19 10.51 C128.18 11.85 128.18 13.19 128.18 14.52 C128.18 15.92 128.18 17.32 128.18 18.72 C128.18 22.53 128.17 26.34 128.16 30.15 C128.16 34.13 128.16 38.1 128.16 42.08 C128.15 49.62 128.14 57.15 128.13 64.69 C128.12 73.27 128.12 81.85 128.11 90.42 C128.1 108.07 128.08 125.72 128.06 143.38 C125.6 143.4 123.15 143.42 120.69 143.44 C119.99 143.45 119.29 143.45 118.57 143.46 C113.29 143.49 113.29 143.49 111.06 142.38 C111.04 130.09 111.02 117.81 111.01 105.52 C111.01 99.81 111 94.11 110.99 88.4 C110.98 82.88 110.97 77.35 110.97 71.83 C110.97 69.74 110.96 67.65 110.96 65.56 C110.93 53.13 111.17 40.76 111.85 28.35 C111.96 26.36 112.06 24.37 112.06 22.38 C111.4 22.38 110.74 22.38 110.06 22.38 C109.94 23.26 109.81 24.14 109.68 25.05 C109.11 28.12 108.32 30.66 107.16 33.54 C106.75 34.56 106.35 35.57 105.93 36.62 C105.48 37.74 105.03 38.85 104.56 40 C103.56 42.51 102.56 45.02 101.57 47.53 C101.29 48.21 101.02 48.9 100.74 49.6 C96.93 59.21 93.22 68.86 89.5 78.5 C88.76 80.42 88.02 82.34 87.28 84.26 C84.17 92.3 81.07 100.33 78 108.38 C73.51 120.11 68.93 131.79 64.06 143.38 C61.96 143.48 59.85 143.56 57.75 143.62 C56.58 143.67 55.41 143.72 54.2 143.77 C51.06 143.38 51.06 143.38 49.56 141.83 C47.58 138.59 46.28 135.17 44.97 131.62 C44.68 130.84 44.38 130.05 44.07 129.25 C43.43 127.53 42.78 125.81 42.14 124.09 C40.75 120.36 39.34 116.64 37.93 112.91 C37.18 110.91 36.42 108.91 35.67 106.9 C30.64 93.58 25.5 80.3 20.38 67.02 C19.17 63.88 17.96 60.75 16.75 57.62 C16.37 56.61 15.98 55.61 15.58 54.58 C12.28 45.99 9.05 37.37 5.86 28.73 C5.51 27.78 5.16 26.83 4.79 25.85 C4.48 25.01 4.17 24.16 3.85 23.3 C3.22 21.4 3.22 21.4 2.06 20.38 C2.06 60.97 2.06 101.56 2.06 143.38 C-2.56 143.38 -7.18 143.38 -11.94 143.38 C-13.67 141.64 -13.07 139.31 -13.07 136.95 C-13.08 135.78 -13.08 134.6 -13.08 133.39 C-13.08 131.43 -13.08 131.43 -13.08 129.44 C-13.09 128.07 -13.09 126.69 -13.09 125.31 C-13.1 121.57 -13.1 117.82 -13.1 114.07 C-13.11 110.95 -13.11 107.82 -13.11 104.7 C-13.12 97.33 -13.12 89.96 -13.12 82.59 C-13.12 74.98 -13.13 67.37 -13.15 59.76 C-13.16 53.24 -13.17 46.71 -13.17 40.19 C-13.17 36.29 -13.17 32.38 -13.18 28.48 C-13.19 24.82 -13.19 21.15 -13.18 17.48 C-13.18 15.49 -13.19 13.49 -13.2 11.5 C-13.19 10.32 -13.19 9.14 -13.18 7.92 C-13.19 6.89 -13.19 5.87 -13.19 4.8 C-12.51 -1.82 -5.05 0.01 0 0 Z " fill="#101312" transform="translate(764.9375,589.625)"/>
<path d="M0 0 C1.36 1.3 2.71 2.63 4 4 C-0.91 2.32 -5.02 -0.43 -9.38 -3.19 C-38.54 -21.27 -75.37 -33.12 -109.85 -33.17 C-110.66 -33.17 -111.48 -33.17 -112.32 -33.18 C-114.03 -33.18 -115.75 -33.19 -117.46 -33.19 C-120.03 -33.19 -122.6 -33.21 -125.17 -33.22 C-140.07 -33.28 -154.21 -31.74 -168.75 -28.31 C-169.86 -28.05 -170.97 -27.79 -172.12 -27.52 C-209.62 -18.43 -245.01 0.35 -273 27 C-273.88 27.83 -273.88 27.83 -274.78 28.68 C-316.57 68.39 -341.41 124.4 -343.22 182.04 C-344.35 238.22 -325.8 294.71 -287 336 C-285.76 337.41 -284.53 338.83 -283.31 340.25 C-276.83 347.67 -269.71 353.88 -262 360 C-261.03 360.78 -260.07 361.57 -259.07 362.38 C-226.76 388.03 -187.06 404.57 -146 409 C-145.04 409.11 -144.09 409.22 -143.11 409.34 C-110.66 412.48 -77.82 408.44 -47 398 C-44.34 397.21 -41.68 396.44 -39.02 395.68 C-36.93 395.04 -36.93 395.04 -34.86 393.86 C-34.25 393.57 -33.63 393.29 -33 393 C-32.34 393.33 -31.68 393.66 -31 394 C-30.67 393.34 -30.34 392.68 -30 392 C-27.25 390.5 -24.5 389.19 -21.58 388.06 C-19.08 387.03 -16.83 385.86 -14.5 384.5 C-13.26 383.79 -13.26 383.79 -12 383.06 C-11.16 382.57 -10.31 382.07 -9.44 381.56 C-8.59 381.07 -7.74 380.58 -6.86 380.08 C-3.08 377.88 0.54 375.68 4 373 C4.66 373.33 5.32 373.66 6 374 C-5.45 382.24 -17.3 388.93 -30 395 C-30.72 395.34 -31.44 395.69 -32.17 396.04 C-47.21 403.16 -62.45 408.14 -78.69 411.75 C-79.58 411.95 -80.47 412.15 -81.38 412.35 C-96.02 415.45 -110.31 416.35 -125.22 416.32 C-128.1 416.31 -130.98 416.34 -133.85 416.36 C-151.13 416.42 -168.25 414.72 -185 410.31 C-185.99 410.06 -186.97 409.8 -187.99 409.54 C-226.7 399.19 -261.24 378.79 -290 351 C-290.49 350.53 -290.98 350.07 -291.49 349.59 C-299.5 341.99 -306.44 333.87 -313 325 C-313.75 324 -314.5 322.99 -315.27 321.96 C-351.74 271.19 -364.18 209.44 -354.38 148.23 C-347.05 106.25 -326.92 66.57 -298.12 35.3 C-296.01 33.01 -293.97 30.67 -291.94 28.31 C-288.23 24.15 -284.29 20.55 -280 17 C-278.88 16.04 -277.76 15.09 -276.64 14.13 C-261.7 1.53 -245.65 -8.66 -228 -17 C-226.39 -17.85 -224.79 -18.7 -223.19 -19.56 C-215.44 -23.43 -207.16 -26.16 -199 -29 C-198.31 -29.24 -197.62 -29.49 -196.91 -29.74 C-185.51 -33.71 -173.91 -36.08 -162 -38 C-161.28 -38.12 -160.55 -38.24 -159.81 -38.36 C-105.53 -47 -44.23 -32.89 0 0 Z " fill="#101312" transform="translate(556,464)"/>
<path d="M0 0 C1.36 -0.02 1.36 -0.02 2.75 -0.04 C3.74 -0.04 4.72 -0.03 5.74 -0.03 C6.76 -0.03 7.78 -0.04 8.84 -0.05 C11.01 -0.05 13.19 -0.05 15.36 -0.04 C18.64 -0.03 21.91 -0.06 25.18 -0.09 C41.71 -0.15 59.62 0.57 72.59 12.29 C81.9 22.3 83.98 33.25 83.75 46.62 C83 58.28 79.3 67.13 70.76 75.15 C58.25 85.37 43.53 86.8 27.88 86.97 C25.22 87 22.56 87.04 19.91 87.1 C18.75 87.11 17.59 87.12 16.4 87.13 C13.31 87.19 13.31 87.19 10.51 89.4 C10.03 91.78 10.03 91.78 10.07 94.59 C10.05 95.67 10.04 96.75 10.01 97.86 C10.01 99.62 10.01 99.62 10 101.41 C9.98 102.61 9.96 103.8 9.94 105.04 C9.89 108.87 9.85 112.7 9.82 116.53 C9.79 119.12 9.75 121.71 9.72 124.31 C9.63 130.67 9.56 137.04 9.51 143.4 C7.05 143.43 4.59 143.45 2.13 143.47 C1.43 143.47 0.73 143.48 0.01 143.49 C-5.27 143.52 -5.27 143.52 -7.49 142.4 C-7.56 124.33 -7.62 106.26 -7.65 88.19 C-7.66 79.8 -7.68 71.41 -7.72 63.02 C-7.75 55.71 -7.77 48.39 -7.78 41.08 C-7.78 37.21 -7.79 33.34 -7.81 29.46 C-7.83 25.82 -7.84 22.18 -7.83 18.53 C-7.83 16.55 -7.85 14.58 -7.87 12.6 C-7.86 11.42 -7.86 10.25 -7.85 9.04 C-7.86 8.02 -7.86 7 -7.86 5.94 C-7.49 3.4 -7.49 3.4 -6.1 1.58 C-3.97 0.03 -2.62 0.02 0 0 Z " fill="#101312" transform="translate(939.492919921875,589.595947265625)"/>
<path d="M0 0 C13.84 10.6 21.84 29.19 24.29 46.02 C27.15 69.33 24.9 94.36 11 114 C-1.36 128.49 -15.21 134.29 -34 136 C-55.12 137.29 -72.93 131.77 -89 118 C-104.08 100.86 -108.05 78.03 -106.75 55.86 C-105.25 36.14 -99.22 16.54 -84 3 C-59.73 -15.35 -25.54 -16.9 0 0 Z M-75.38 17 C-88.37 33.21 -90.56 53.95 -89 74 C-87.16 89.18 -82.34 103.22 -70 113 C-60.3 119.51 -51.16 121.39 -39.62 121.31 C-38.7 121.31 -37.78 121.3 -36.83 121.3 C-24.77 121.08 -15.63 118.37 -6.8 109.89 C7.91 94.14 7.59 73.65 7.13 53.24 C6.47 36.92 1.13 23.26 -11 12 C-29.23 -2.53 -59.35 0.67 -75.38 17 Z " fill="#101312" transform="translate(479,599)"/>
<path d="M0 0 C1.26 0.22 1.26 0.22 2.55 0.44 C30.36 5.4 54.66 16.37 78 32 C77.34 32.33 76.68 32.66 76 33 C73.51 31.74 71.15 30.42 68.75 29 C67.28 28.16 65.8 27.31 64.33 26.47 C63.59 26.05 62.85 25.63 62.1 25.2 C43.17 14.4 22.52 8.11 1 5 C0.32 4.9 -0.36 4.8 -1.06 4.69 C-49.65 -1.68 -100.25 12.86 -139.05 42.47 C-144.55 46.78 -149.84 51.29 -155 56 C-155.82 56.75 -156.64 57.49 -157.48 58.26 C-173.43 73.53 -185.75 93.09 -195 113 C-195.46 113.93 -195.92 114.85 -196.39 115.81 C-217.53 159.63 -217.11 210.52 -201.76 255.92 C-193.33 279.71 -180.17 301.47 -162.5 319.47 C-160.99 321.01 -159.51 322.56 -158.04 324.12 C-151.23 331.2 -143.99 337.31 -136 343 C-135.43 343.41 -134.86 343.82 -134.27 344.24 C-93.97 372.9 -43.24 384.89 5.66 376.99 C17.28 374.93 28.74 372.14 39.96 368.47 C42 368 42 368 44 369 C44.33 368.34 44.66 367.68 45 367 C45.79 366.75 46.58 366.49 47.39 366.23 C53.49 364.15 59.01 360.81 64.65 357.72 C65.57 357.23 66.48 356.74 67.42 356.24 C68.25 355.78 69.08 355.33 69.94 354.86 C70.62 354.58 71.3 354.29 72 354 C72.66 354.33 73.32 354.66 74 355 C67.9 359.31 61.74 362.82 54.94 365.88 C53.99 366.3 53.05 366.72 52.07 367.16 C3.19 388.63 -51.92 391.34 -102 372 C-128.77 361.4 -151.65 345.25 -172 325 C-172.5 324.5 -173 324 -173.52 323.49 C-185.5 311.44 -195.21 297.06 -203 282 C-203.36 281.3 -203.72 280.6 -204.1 279.89 C-227.64 233.83 -231.53 181.34 -215.73 132.2 C-212.35 121.97 -207.95 112.46 -202.99 102.92 C-202.08 101.15 -201.18 99.37 -200.28 97.59 C-189.33 76.36 -172.89 56.56 -154 42 C-152.97 41.18 -151.94 40.35 -150.88 39.5 C-143.6 33.73 -136.09 28.59 -128 24 C-127.31 23.61 -126.62 23.22 -125.92 22.81 C-88.06 1.5 -43.1 -7.71 0 0 Z " fill="#101312" transform="translate(465,461)"/>
<path d="M0 0 C1.3 -0.1 2.61 -0.2 3.95 -0.3 C8.26 0.89 8.6 1.37 10.82 5 C11.82 6.9 12.8 8.82 13.75 10.75 C14.27 11.74 14.8 12.73 15.33 13.75 C17.04 16.99 18.71 20.24 20.38 23.5 C25.4 33.27 30.53 42.97 35.84 52.59 C36.3 53.42 36.76 54.25 37.23 55.11 C37.87 56.27 37.87 56.27 38.53 57.47 C39.73 59.72 40.85 62 41.96 64.3 C43.34 67.79 43.34 67.79 45.75 68.75 C45.75 69.41 45.75 70.07 45.75 70.75 C46.41 70.75 47.07 70.75 47.75 70.75 C48.02 70.05 48.28 69.35 48.56 68.63 C49.83 65.56 51.28 62.64 52.8 59.69 C53.25 58.83 53.25 58.83 53.71 57.94 C54.68 56.06 55.65 54.19 56.62 52.31 C56.96 51.67 57.29 51.03 57.63 50.36 C63.43 39.18 69.41 28.09 75.49 17.05 C76.67 14.89 77.83 12.72 78.98 10.54 C79.3 9.92 79.63 9.3 79.97 8.67 C80.8 7.09 81.62 5.5 82.45 3.92 C83.75 1.75 83.75 1.75 85.75 0.75 C88.12 0.68 90.5 0.67 92.88 0.69 C94.16 0.7 95.44 0.71 96.76 0.71 C98.24 0.73 98.24 0.73 99.75 0.75 C100.6 3.13 100.89 4.36 100.04 6.78 C99.65 7.5 99.26 8.22 98.86 8.96 C98.43 9.78 97.99 10.6 97.54 11.45 C97.05 12.33 96.56 13.21 96.06 14.12 C95.56 15.06 95.06 15.99 94.54 16.95 C92.96 19.89 91.35 22.82 89.75 25.75 C88.79 27.53 87.83 29.3 86.87 31.08 C82.61 38.95 78.29 46.79 73.94 54.61 C73.61 55.2 73.28 55.79 72.95 56.39 C71.36 59.25 69.77 62.1 68.18 64.95 C66.97 67.11 65.79 69.27 64.62 71.44 C62.75 74.75 62.75 74.75 60.55 77.92 C52.44 90.08 53.63 103.56 53.75 117.69 C53.74 120.22 53.73 122.75 53.71 125.29 C53.69 131.44 53.7 137.6 53.75 143.75 C51.46 143.78 49.17 143.8 46.88 143.81 C45.6 143.82 44.32 143.84 43.01 143.85 C39.75 143.75 39.75 143.75 37.75 142.75 C37.77 142.13 37.79 141.51 37.81 140.87 C39.95 101.1 39.95 101.1 24.76 65.65 C21.42 60.83 18.81 55.63 16.12 50.43 C14.59 47.48 13.02 44.56 11.45 41.63 C10.83 40.49 10.22 39.35 9.59 38.18 C6.07 31.63 2.52 25.09 -1.04 18.56 C-3.88 13.34 -6.63 8.09 -9.25 2.75 C-6.35 -0.15 -4.04 0.21 0 0 Z " fill="#101312" transform="translate(630.25,589.25)"/>
<path d="M0 0 C1.17 0.01 2.35 0.03 3.56 0.04 C5.32 0.05 5.32 0.05 7.12 0.06 C10 0.23 10 0.23 11 1.23 C11.1 2.85 11.14 4.47 11.15 6.09 C11.16 7.14 11.16 8.19 11.17 9.28 C11.18 10.44 11.18 11.6 11.19 12.8 C11.19 14.02 11.2 15.24 11.21 16.49 C11.23 19.15 11.24 21.8 11.26 24.46 C11.28 28.65 11.3 32.84 11.33 37.03 C11.4 46.69 11.45 56.35 11.51 66 C11.56 74.85 11.61 83.7 11.67 92.55 C11.7 96.72 11.73 100.89 11.75 105.06 C11.76 108.26 11.78 111.46 11.81 114.66 C11.81 115.82 11.82 116.99 11.82 118.18 C11.83 119.24 11.84 120.29 11.84 121.37 C11.85 122.29 11.85 123.21 11.86 124.16 C11.77 126.22 11.77 126.22 13 127.23 C14.86 127.35 16.73 127.4 18.6 127.42 C19.8 127.44 21 127.45 22.23 127.47 C23.54 127.48 24.84 127.5 26.18 127.51 C27.52 127.53 28.87 127.55 30.21 127.57 C34.47 127.63 38.73 127.68 43 127.73 C47.93 127.79 52.87 127.85 57.81 127.92 C59.79 127.95 61.78 127.97 63.76 127.99 C64.96 128.01 66.16 128.02 67.39 128.04 C68.98 128.06 68.98 128.06 70.6 128.08 C73 128.23 73 128.23 74 129.23 C74.07 131.58 74.08 133.94 74.06 136.29 C74.05 137.58 74.04 138.87 74.03 140.2 C74.02 141.2 74.01 142.2 74 143.23 C63.99 143.25 53.99 143.27 43.98 143.28 C39.34 143.29 34.69 143.29 30.04 143.31 C25.56 143.32 21.08 143.32 16.6 143.33 C14.89 143.33 13.18 143.33 11.47 143.34 C9.08 143.34 6.68 143.34 4.29 143.34 C3.58 143.35 2.87 143.35 2.13 143.35 C-2.78 143.34 -2.78 143.34 -5 142.23 C-5.05 124.01 -5.09 105.79 -5.11 87.57 C-5.12 79.11 -5.13 70.65 -5.15 62.2 C-5.17 54.82 -5.19 47.45 -5.19 40.08 C-5.19 36.18 -5.2 32.27 -5.22 28.37 C-5.23 24.7 -5.23 21.03 -5.23 17.35 C-5.23 15.36 -5.24 13.36 -5.25 11.36 C-5.25 10.18 -5.25 9 -5.24 7.79 C-5.25 6.76 -5.25 5.72 -5.25 4.66 C-4.87 0.86 -3.72 0.29 0 0 Z " fill="#101312" transform="translate(541.00390625,589.76953125)"/>
<path d="M0 0 C1.49 -0.02 1.49 -0.02 3.01 -0.03 C4.06 -0.02 5.12 -0.01 6.21 -0 C7.28 0 8.36 0.01 9.47 0.01 C21.31 0.24 34.1 1.4 42.85 10.29 C49.2 18.74 49.84 27.07 49.02 37.43 C47.82 43.52 44.58 48.28 40.02 52.43 C30.14 59.01 18.23 58.87 6.77 58.68 C5.45 58.68 4.14 58.67 2.78 58.67 C-6.83 58.59 -6.83 58.59 -7.98 57.43 C-8.09 55.76 -8.13 54.09 -8.14 52.41 C-8.15 51.34 -8.16 50.27 -8.17 49.16 C-8.17 48 -8.18 46.83 -8.18 45.63 C-8.19 44.44 -8.19 43.25 -8.2 42.02 C-8.21 39.5 -8.22 36.98 -8.22 34.45 C-8.23 30.58 -8.26 26.71 -8.29 22.84 C-8.3 20.4 -8.3 17.95 -8.31 15.5 C-8.33 13.76 -8.33 13.76 -8.35 11.98 C-8.34 10.9 -8.34 9.83 -8.34 8.72 C-8.34 7.77 -8.34 6.82 -8.35 5.84 C-7.58 0.81 -4.64 0.05 0 0 Z " fill="#FBFDFD" transform="translate(956.98046875,603.56640625)"/>
<path d="M0 0 C3.61 3.14 5.1 6.09 6.75 10.56 C7.39 12.27 7.39 12.27 8.05 14 C9 17 9 17 9 20 C9.66 20 10.32 20 11 20 C11 20.66 11 21.32 11 22 C13.87 19.78 14.52 17.54 15.41 14.11 C16.12 11.57 16.96 9.1 17.88 6.62 C18.18 5.77 18.49 4.92 18.8 4.04 C20 2 20 2 22.07 1.15 C23.03 1.07 23.03 1.07 24 1 C25 2 25 2 25.11 4.5 C25.11 5.58 25.1 6.67 25.1 7.79 C25.09 8.95 25.09 10.12 25.09 11.33 C25.08 12.56 25.07 13.79 25.06 15.06 C25.06 16.3 25.05 17.53 25.05 18.81 C25.04 21.87 25.02 24.94 25 28 C24.01 27.67 23.02 27.34 22 27 C22 21.39 22 15.78 22 10 C21.34 9.67 20.68 9.34 20 9 C19.83 9.62 19.66 10.23 19.48 10.87 C17.78 16.83 15.66 22.4 13 28 C11.16 27.85 11.16 27.85 9 27 C7.62 24.52 7.62 24.52 6.44 21.38 C5.85 19.84 5.85 19.84 5.25 18.27 C4.83 17.19 4.42 16.11 4 15 C3.01 12.69 2.02 10.38 1 8 C0.67 14.6 0.34 21.2 0 28 C-0.99 27.67 -1.98 27.34 -3 27 C-3.09 23.06 -3.14 19.13 -3.19 15.19 C-3.21 14.07 -3.24 12.95 -3.26 11.79 C-3.27 10.72 -3.28 9.65 -3.29 8.54 C-3.31 7.55 -3.32 6.56 -3.34 5.54 C-2.95 2.63 -2.28 1.78 0 0 Z " fill="#101312" transform="translate(751,776)"/>
<path d="M0 0 C7.03 0.23 7.03 0.23 10.44 2.94 C13.76 7.32 13.62 11.65 13 17 C10.89 20.56 9.92 21.69 6 23 C2.38 23.12 2.38 23.12 -1 23 C-3.3 20.7 -2.19 15.15 -2.19 12.06 C-2.2 11.13 -2.21 10.2 -2.22 9.24 C-2.23 8.34 -2.23 7.45 -2.23 6.54 C-2.24 5.3 -2.24 5.3 -2.24 4.05 C-2 2 -2 2 0 0 Z " fill="#FBFDFD" transform="translate(980,779)"/>
<path d="M0 0 C4.07 0.78 6.43 2.22 9.26 5.18 C11.17 8.36 11.1 10.76 11.1 14.45 C11.13 16.26 11.13 16.26 11.16 18.1 C10.58 22.09 9.51 23.71 6.66 26.51 C1.59 28.6 -3.88 29.27 -9.34 28.51 C-12.43 25.42 -11.63 22.18 -11.66 17.95 C-11.65 16.84 -11.65 15.72 -11.65 14.57 C-11.66 13.46 -11.68 12.35 -11.7 11.21 C-11.7 10.14 -11.7 9.08 -11.7 7.98 C-11.7 7.01 -11.71 6.03 -11.71 5.02 C-11.34 2.51 -11.34 2.51 -9.97 0.68 C-6.92 -1.5 -3.54 -0.43 0 0 Z M-5.34 2.51 C-7.52 4.29 -7.52 4.29 -7.58 6.56 C-7.57 7.38 -7.57 8.2 -7.57 9.05 C-7.56 9.94 -7.56 10.83 -7.56 11.75 C-7.55 12.68 -7.54 13.61 -7.52 14.57 C-7.52 15.51 -7.52 16.45 -7.52 17.41 C-7.89 21.8 -7.89 21.8 -6.34 25.51 C-1.35 25.9 1.66 25.6 5.66 22.51 C8.51 18.25 8.17 14.51 7.66 9.51 C6.74 6.47 6.74 6.47 4.66 4.51 C1.03 2.89 -1.32 2.51 -5.34 2.51 Z " fill="#101312" transform="translate(985.3359375,776.48828125)"/>
<path d="M0 0 C2.44 1 2.44 1 4 2 C4 2.66 4 3.32 4 4 C3.29 4.06 2.58 4.12 1.85 4.18 C0.93 4.27 0.01 4.35 -0.94 4.44 C-1.85 4.52 -2.77 4.6 -3.71 4.68 C-5.96 4.76 -5.96 4.76 -7 6 C-7.04 7.67 -7.04 9.33 -7 11 C-4.98 11.16 -2.96 11.33 -0.95 11.49 C1 12 1 12 3 15 C-0.3 15.33 -3.6 15.66 -7 16 C-7 18.97 -7 21.94 -7 25 C-4.72 25.23 -2.44 25.46 -0.16 25.68 C2 26 2 26 4 27 C4 27.66 4 28.32 4 29 C1.71 29.05 -0.58 29.09 -2.88 29.12 C-4.15 29.15 -5.43 29.17 -6.74 29.2 C-10 29 -10 29 -12 27 C-12.51 23.04 -12.42 19.05 -12.44 15.06 C-12.47 13.95 -12.5 12.84 -12.54 11.7 C-12.54 10.63 -12.55 9.57 -12.56 8.47 C-12.57 7.5 -12.59 6.52 -12.6 5.51 C-12 3 -12 3 -9.69 1.18 C-6.24 -0.33 -3.73 -0.34 0 0 Z " fill="#101312" transform="translate(930,776)"/>
<path d="M0 0 C0.75 0 1.51 0.01 2.29 0.01 C4.15 0.03 6.01 0.04 7.88 0.06 C8.53 1.38 9.2 2.7 9.88 4.06 C8.17 4.28 8.17 4.28 6.44 4.5 C3.07 4.67 3.07 4.67 1.88 6.06 C1.72 7.77 1.62 9.48 1.56 11.19 C1.52 12.23 1.47 13.26 1.43 14.33 C1.39 15.41 1.35 16.5 1.31 17.62 C1.27 18.72 1.23 19.81 1.18 20.94 C1.08 23.64 0.97 26.35 0.88 29.06 C-0.12 28.4 -1.11 27.74 -2.12 27.06 C-2.56 24.82 -2.56 24.82 -2.64 22.05 C-2.67 21.07 -2.71 20.08 -2.74 19.07 C-2.77 18.03 -2.79 17 -2.81 15.94 C-2.85 14.9 -2.88 13.86 -2.92 12.79 C-3 10.21 -3.07 7.64 -3.12 5.06 C-5.43 4.4 -7.75 3.74 -10.12 3.06 C-10.12 2.4 -10.12 1.74 -10.12 1.06 C-6.94 -0.53 -3.5 -0.04 0 0 Z " fill="#101312" transform="translate(870.125,775.9375)"/>
<path d="M0 0 C0.66 0 1.32 0 2 0 C2.04 0.99 2.04 0.99 2.08 2 C2.19 4.98 2.31 7.96 2.44 10.94 C2.48 11.98 2.52 13.02 2.56 14.09 C2.6 15.08 2.64 16.07 2.68 17.09 C2.72 18.01 2.76 18.92 2.79 19.87 C2.77 21.98 2.77 21.98 4 23 C5.68 23.39 7.37 23.74 9.06 24.06 C9.98 24.24 10.9 24.42 11.85 24.6 C12.56 24.73 13.27 24.86 14 25 C14 25.66 14 26.32 14 27 C11.88 27.03 9.75 27.05 7.62 27.06 C6.44 27.07 5.26 27.09 4.04 27.1 C1 27 1 27 -1 26 C-1.03 21.85 -1.05 17.71 -1.06 13.56 C-1.07 12.38 -1.08 11.19 -1.09 9.97 C-1.09 8.85 -1.09 7.73 -1.1 6.57 C-1.1 5.52 -1.11 4.48 -1.11 3.41 C-1 1 -1 1 0 0 Z " fill="#101312" transform="translate(650,778)"/>
<path d="M0 0 C0.99 0.33 1.98 0.66 3 1 C3 9.58 3 18.16 3 27 C2.01 26.67 1.02 26.34 0 26 C0 17.42 0 8.84 0 0 Z " fill="#101312" transform="translate(818,777)"/>
<path d="M0 0 C0.66 0 1.32 0 2 0 C2 8.58 2 17.16 2 26 C1.01 25.67 0.02 25.34 -1 25 C-1.03 21.02 -1.05 17.04 -1.06 13.06 C-1.07 11.93 -1.08 10.79 -1.09 9.62 C-1.09 8.54 -1.09 7.46 -1.1 6.35 C-1.1 5.35 -1.11 4.35 -1.11 3.32 C-1 1 -1 1 0 0 Z " fill="#101312" transform="translate(704,778)"/>
</svg>
